<svg width="1788" height="995" viewBox="0 0 1788 995" fill="none" xmlns="http://www.w3.org/2000/svg">
<ellipse cx="149.564" cy="479.605" rx="50" ry="51.6049" fill="#0E286D"/>
<ellipse cx="152.564" cy="794.395" rx="50" ry="51.6049" fill="#0E286D"/>
<ellipse cx="50" cy="637.04" rx="50" ry="51.6049" fill="#0E286D"/>
<ellipse cx="353" cy="497.04" rx="50" ry="51.6049" fill="#0E286D"/>
<path fill-rule="evenodd" clip-rule="evenodd" d="M199.161 775.68C165.651 686.807 164.699 586.907 196.508 497.37L102.969 498.32C136.478 587.194 137.43 687.093 105.621 776.63L199.161 775.68Z" fill="#0E286D"/>
<ellipse cx="249.564" cy="322.605" rx="50" ry="51.6049" fill="#0E286D"/>
<ellipse cx="252.564" cy="636.605" rx="50" ry="51.6049" fill="#0E286D"/>
<path fill-rule="evenodd" clip-rule="evenodd" d="M299.16 618.68C265.651 529.807 264.699 429.907 296.508 340.37L202.968 341.32C236.478 430.194 237.43 530.093 205.621 619.63L299.16 618.68Z" fill="#0E286D"/>
<path d="M649.852 770.565V881.271H607.098V779.625C607.098 763.203 599.454 753.577 585.014 753.577C572.556 753.577 562.363 760.938 557.549 772.547V881.271H514.796V721.299H548.206L556.7 736.305H557.833C567.459 724.697 584.164 717.335 600.869 717.335C632.014 717.335 649.852 734.607 649.852 770.565ZM795.476 836.252L814.163 866.548C801.705 876.741 786.133 884.385 755.554 884.385C705.156 884.385 679.391 856.072 679.391 800.86C679.391 749.047 708.271 718.185 754.422 718.185C795.193 718.185 818.694 743.95 818.694 783.023C818.694 791.234 818.41 799.162 816.712 811.62H721.295C721.861 836.819 733.187 850.692 760.368 850.692C777.639 850.692 789.531 842.481 795.476 836.252ZM753.289 750.462C734.036 750.462 722.711 764.619 722.144 783.306H778.488V779.059C778.488 760.372 770.56 750.462 753.289 750.462ZM900.319 882.687C872.854 882.687 853.035 868.813 853.035 830.023V753.86H832.649V727.245L853.318 718.751L868.041 681.094H895.222V721.299H935.144V753.86H895.222V831.156C895.222 842.198 901.451 847.861 911.927 847.861C918.722 847.861 927.5 845.596 933.729 840.783L944.771 872.777C939.391 876.741 926.933 882.687 900.319 882.687ZM1064.35 774.246H1063.22L1037.17 881.271H988.188L946.567 721.299H989.32L1006.31 795.198C1009.99 811.903 1012.54 825.21 1014.52 845.03H1015.65C1017.35 826.909 1020.75 809.921 1024.43 795.481L1044.25 721.299H1085.02L1102.29 794.348C1106.26 811.053 1110.22 827.475 1111.07 845.03H1112.2C1114.18 827.475 1117.58 811.62 1121.83 793.782L1138.82 721.299H1176.76L1135.42 881.271H1085.59L1064.35 774.246ZM1233.7 800.294C1233.7 833.421 1241.91 850.975 1263.42 850.975C1285.23 850.975 1292.02 835.12 1292.02 802.559C1292.02 769.432 1283.81 751.878 1261.73 751.878C1242.19 751.878 1233.7 767.734 1233.7 800.294ZM1262.01 884.385C1207.08 884.385 1189.81 851.542 1189.81 801.993C1189.81 752.727 1210.48 718.468 1263.42 718.468C1318.64 718.468 1335.91 751.312 1335.91 800.86C1335.91 850.126 1314.96 884.385 1262.01 884.385ZM1464.11 719.317V761.505C1458.45 760.372 1451.37 760.089 1445.71 760.089C1432.4 760.089 1417.68 765.185 1408.33 772.83V881.271H1365.86V721.299H1399.27L1408.05 744.8H1409.18C1415.69 729.227 1429.57 717.902 1450.52 717.902C1455.05 717.902 1460.43 718.468 1464.11 719.317ZM1527.23 666.654V881.271H1484.48V666.654H1527.23ZM1528.37 796.613V795.481L1571.97 721.299H1620.95L1573.95 794.915V796.047L1622.08 881.271H1571.4L1528.37 796.613ZM1715.59 836.819C1715.59 813.602 1640.28 821.246 1640.28 768.017C1640.28 741.968 1662.65 718.468 1699.74 718.468C1728.62 718.468 1747.02 728.661 1757.5 740.836L1730.03 767.734C1724.37 761.221 1713.33 752.727 1698.61 752.727C1688.98 752.727 1682.75 757.824 1682.75 765.185C1682.75 789.252 1758.07 780.758 1758.07 834.27C1758.07 855.506 1741.36 884.102 1694.93 884.102C1659.82 884.102 1638.58 869.379 1629.8 860.036L1655.29 830.59C1662.37 838.801 1677.94 850.409 1697.19 850.409C1710.5 850.409 1715.59 844.18 1715.59 836.819Z" fill="#0E286D"/>
<path d="M523.303 609V220.673H608.059V609H523.303ZM835.213 220.673C913.876 220.673 970.934 250.033 970.934 335.897C970.934 408.466 932.71 471.064 819.148 471.064H787.018V609H702.262V220.673H835.213ZM821.364 292.134H787.018V401.818H814.716C871.221 401.818 883.408 377.444 883.408 347.53C883.408 309.307 864.573 292.134 821.364 292.134ZM1106.45 543.633V545.294L1172.37 541.971H1253.25V609H1022.8L1008.95 541.417C1067.12 486.021 1111.99 440.596 1138.03 404.588C1155.2 380.214 1164.62 360.271 1164.62 341.991C1164.62 312.077 1149.66 300.444 1129.72 300.444C1104.23 300.444 1094.26 324.264 1093.16 349.746L1011.17 335.343C1017.26 278.285 1053.82 231.752 1134.15 231.752C1206.72 231.752 1248.26 268.868 1248.26 330.911C1248.26 370.797 1236.08 405.696 1202.29 447.797C1188.44 464.416 1171.82 482.697 1151.88 502.639C1138.58 515.381 1123.07 528.676 1106.45 543.633ZM1321.79 609V220.673H1406.54V609H1321.79ZM1633.7 220.673C1712.36 220.673 1769.42 250.033 1769.42 335.897C1769.42 408.466 1731.19 471.064 1617.63 471.064H1585.5V609H1500.75V220.673H1633.7ZM1619.85 292.134H1585.5V401.818H1613.2C1669.7 401.818 1681.89 377.444 1681.89 347.53C1681.89 309.307 1663.06 292.134 1619.85 292.134Z" fill="#0E286D"/>
</svg>
